<svg xmlns="http://www.w3.org/2000/svg" xmlns:xlink="http://www.w3.org/1999/xlink" preserveAspectRatio="xMidYMid meet" version="1.0" viewBox="0.0 0.0 6784.6 2710.7" zoomAndPan="magnify" style="fill: rgb(217, 227, 240);" original_string_length="7626" width="270.3659383961541px" height="108.02683257066677px"><g id="__id0_s2w9oseqbk"><path d="m6685.35,2260.69c-2.08,2.28-4.19,4.54-6.33,6.77-1.38,1.45-2.77,2.89-4.18,4.32-1.41,1.43-2.84,2.83-4.27,4.24-1.34,1.32-2.7,2.62-4.06,3.92-1.43,1.36-2.86,2.73-4.32,4.07-1.78,1.64-3.59,3.25-5.4,4.86-2.05,1.82-4.13,3.62-6.23,5.4-1.61,1.37-3.23,2.74-4.87,4.09-1.46,1.2-2.94,2.39-4.42,3.57-1.63,1.3-3.28,2.58-4.93,3.86-1.42,1.09-2.83,2.19-4.27,3.27-2.83,2.12-5.68,4.2-8.57,6.24-1.25.88-2.52,1.73-3.78,2.6-1.98,1.36-3.98,2.72-5.99,4.05-1.41.93-2.84,1.85-4.26,2.77-2.05,1.31-4.11,2.6-6.19,3.87-1.27.78-2.54,1.57-3.82,2.34-3.18,1.9-6.39,3.76-9.63,5.57-1.12.63-2.27,1.23-3.4,1.85-2.38,1.3-4.78,2.58-7.2,3.83-1.32.68-2.64,1.36-3.97,2.03-2.52,1.27-5.07,2.5-7.62,3.72-1.05.5-2.09,1.01-3.15,1.5-3.51,1.63-7.06,3.2-10.63,4.72-1.03.44-2.07.86-3.11,1.29-2.73,1.14-5.48,2.24-8.25,3.32-1.23.48-2.47.95-3.71,1.42-3,1.13-6.02,2.22-9.05,3.27-.8.28-1.59.57-2.4.84-3.79,1.29-7.62,2.51-11.47,3.68-1.02.31-2.05.6-3.08.9-2.97.87-5.95,1.72-8.95,2.52-1.2.32-2.39.64-3.6.95-3.42.88-6.87,1.72-10.33,2.51-.56.13-1.12.27-1.68.4-4.01.89-8.04,1.71-12.1,2.48-1.09.2-2.18.39-3.27.59-3.1.56-6.21,1.08-9.33,1.56-1.21.19-2.42.38-3.64.55-3.81.55-7.63,1.05-11.48,1.48-.33.04-.66.09-1,.12-4.16.46-8.36.83-12.56,1.16-1.19.09-2.38.16-3.57.24-3.17.21-6.36.39-9.56.53-1.24.05-2.48.11-3.73.15-4.27.14-8.54.24-12.85.24h-932.93c-34.49,0-64.43-24.7-70.11-58.9-28.1-167.89-174-295.91-349.98-295.91-29.8,0-58.9,3.69-86.57,10.79-9.08,2.27-17.88,4.83-26.68,7.81-122.34,41.02-215.01,147.17-236.73,277.32-5.68,34.2-35.48,58.9-70.11,58.9h-2354.38c-34.63,0-64.43-24.7-70.11-58.9-28.1-167.89-174.13-295.9-349.97-295.91-175.98,0-321.87,128.02-349.97,295.91-5.68,34.2-35.62,58.9-70.11,58.9H379.5c-3.25,0-6.5-.04-9.73-.12-1.1-.03-2.2-.09-3.3-.12-2.13-.07-4.25-.14-6.37-.24-1.32-.07-2.64-.17-3.96-.25-1.88-.11-3.77-.22-5.65-.36-1.41-.11-2.82-.25-4.23-.37-1.77-.15-3.55-.29-5.31-.47-1.47-.15-2.94-.33-4.4-.5-1.69-.19-3.38-.37-5.06-.58-1.5-.19-3-.41-4.49-.62-1.63-.23-3.27-.44-4.9-.69-1.53-.23-3.05-.5-4.58-.75-1.58-.26-3.16-.51-4.73-.78-1.56-.28-3.11-.58-4.66-.88-1.53-.29-3.06-.57-4.58-.88-1.55-.32-3.1-.66-4.65-1-1.51-.33-3.02-.64-4.52-.98-1.55-.35-3.08-.74-4.62-1.11-1.49-.36-2.98-.71-4.46-1.09-1.55-.4-3.1-.82-4.64-1.24-1.45-.39-2.9-.77-4.34-1.17-1.56-.44-3.1-.91-4.65-1.36-1.42-.42-2.84-.83-4.25-1.26-1.55-.48-3.08-.98-4.62-1.48-1.4-.45-2.8-.89-4.19-1.36-1.54-.52-3.07-1.06-4.61-1.6-1.37-.48-2.74-.95-4.1-1.44-1.53-.56-3.05-1.14-4.57-1.71-1.35-.51-2.7-1.01-4.04-1.54-1.52-.59-3.03-1.21-4.54-1.83-1.33-.54-2.65-1.07-3.97-1.62-1.51-.63-3-1.29-4.5-1.94-1.3-.57-2.61-1.13-3.91-1.71-1.49-.67-2.97-1.36-4.46-2.05-1.28-.6-2.57-1.19-3.85-1.8-1.48-.71-2.94-1.43-4.41-2.16-1.26-.62-2.53-1.24-3.78-1.88-1.46-.74-2.91-1.51-4.36-2.27-1.24-.65-2.48-1.3-3.71-1.96-1.44-.78-2.88-1.57-4.31-2.37-1.22-.68-2.44-1.35-3.66-2.04-1.42-.81-2.84-1.64-4.25-2.47-1.2-.71-2.4-1.41-3.6-2.13-1.41-.85-2.8-1.71-4.2-2.58-1.18-.73-2.35-1.46-3.52-2.2-1.39-.88-2.77-1.78-4.15-2.69-1.15-.75-2.3-1.5-3.45-2.27-1.37-.92-2.73-1.85-4.09-2.79-1.13-.78-2.26-1.55-3.37-2.34-1.35-.95-2.7-1.92-4.04-2.89-1.1-.8-2.21-1.6-3.31-2.41-1.33-.99-2.65-1.99-3.97-2.99-1.08-.82-2.16-1.64-3.23-2.48-1.32-1.02-2.62-2.06-3.93-3.11-1.05-.84-2.09-1.67-3.13-2.52-1.3-1.06-2.59-2.14-3.88-3.22-1.02-.86-2.04-1.71-3.05-2.58-1.28-1.1-2.55-2.21-3.82-3.32-.99-.87-1.98-1.75-2.97-2.63-1.26-1.14-2.52-2.28-3.77-3.44-.96-.88-1.92-1.77-2.86-2.67-1.25-1.18-2.49-2.37-3.72-3.56-.92-.9-1.85-1.79-2.76-2.7-1.23-1.22-2.46-2.45-3.67-3.68-.89-.9-1.78-1.81-2.66-2.72-1.22-1.26-2.43-2.53-3.63-3.81-.86-.91-1.71-1.82-2.55-2.74-1.2-1.3-2.39-2.62-3.57-3.94-.82-.92-1.64-1.84-2.45-2.76-1.18-1.35-2.36-2.71-3.52-4.07-.78-.91-1.56-1.83-2.33-2.75-1.17-1.4-2.34-2.81-3.49-4.23-.74-.9-1.47-1.81-2.19-2.72-1.16-1.46-2.31-2.92-3.46-4.4-.69-.9-1.38-1.79-2.07-2.7-1.15-1.51-2.29-3.03-3.41-4.56-.65-.88-1.3-1.77-1.94-2.66-1.14-1.57-2.26-3.15-3.37-4.74-.6-.86-1.2-1.73-1.8-2.6-1.12-1.63-2.24-3.27-3.34-4.93-.56-.84-1.12-1.69-1.67-2.54-1.11-1.7-2.21-3.4-3.29-5.12-.51-.81-1.02-1.63-1.53-2.45-1.1-1.77-2.19-3.56-3.26-5.35-.46-.77-.92-1.55-1.37-2.32-1.09-1.85-2.17-3.71-3.23-5.59-.41-.73-.82-1.46-1.23-2.2-1.08-1.94-2.14-3.88-3.19-5.84-.36-.68-.72-1.36-1.08-2.04-1.07-2.03-2.12-4.07-3.15-6.12-.31-.61-.61-1.23-.92-1.85-1.06-2.13-2.1-4.27-3.12-6.42-.26-.55-.51-1.1-.77-1.65-1.04-2.23-2.07-4.48-3.07-6.73-.21-.47-.41-.94-.61-1.4-1.03-2.35-2.04-4.72-3.03-7.09-.16-.37-.31-.75-.46-1.13-1.02-2.48-2.01-4.96-2.98-7.47-.11-.28-.21-.56-.32-.83-1-2.61-1.98-5.23-2.92-7.87-.06-.16-.11-.32-.17-.48-.98-2.76-1.94-5.54-2.86-8.33,0-.03-.02-.06-.03-.08-11.72-35.52-18.33-73.37-18.97-112.66-.06-2.08-.08-4.13-.08-6.25V379.36C0,169.88,169.88,0,379.5,0h5829.95c191.88,0,353.67,143.34,376.66,334.09l4.26,34.91,143.2,1189.74,13.2,109.42,35.06,291.37c.49,4.09.9,8.18,1.26,12.25.14,1.51.24,3.02.36,4.53.2,2.62.38,5.24.53,7.85.09,1.66.19,3.32.26,4.98.12,2.77.2,5.52.26,8.28.03,1.33.08,2.67.1,4,.04,3.83.02,7.64-.06,11.45-.03,1.57-.09,3.13-.14,4.69-.08,2.53-.18,5.06-.31,7.58-.08,1.6-.17,3.21-.27,4.81-.18,2.77-.39,5.52-.63,8.27-.11,1.22-.19,2.44-.31,3.66-.38,3.91-.81,7.81-1.31,11.7-.12.93-.26,1.86-.39,2.8-.42,3.13-.88,6.24-1.38,9.35-.18,1.13-.37,2.26-.57,3.39-.55,3.2-1.14,6.4-1.76,9.58-.15.75-.28,1.5-.44,2.25-1.66,8.12-3.58,16.14-5.75,24.08-.16.58-.32,1.16-.49,1.74-1,3.59-2.05,7.16-3.16,10.72-.12.38-.23.77-.35,1.15-2.54,8.06-5.33,16-8.39,23.83-.07.19-.15.38-.23.57-1.45,3.7-2.96,7.37-4.52,11.02-.13.31-.26.62-.4.93-3.33,7.72-6.91,15.31-10.74,22.77-.26.5-.52.99-.78,1.49-1.58,3.05-3.21,6.07-4.87,9.07-.5.91-1,1.82-1.51,2.72-1.7,3.01-3.43,5.99-5.21,8.95-.31.51-.6,1.03-.91,1.55-1.96,3.23-3.99,6.43-6.04,9.6-.82,1.26-1.65,2.5-2.48,3.75-1.33,2-2.67,3.98-4.04,5.95-.96,1.38-1.91,2.76-2.89,4.13-1.46,2.05-2.95,4.07-4.45,6.09-1.46,1.97-2.95,3.92-4.45,5.86-1.47,1.91-2.95,3.81-4.46,5.68-1.2,1.5-2.43,2.98-3.66,4.46-1.24,1.49-2.48,2.97-3.74,4.44-1.28,1.49-2.55,2.99-3.85,4.46-1.41,1.6-2.86,3.18-4.3,4.76Zm-4501.32,123.61c0,180.28-146.14,326.42-326.42,326.42s-326.42-146.14-326.42-326.42,146.14-326.42,326.42-326.42,326.42,146.14,326.42,326.42Zm-168.08,0c0-87.45-70.89-158.34-158.34-158.34s-158.34,70.89-158.34,158.34,70.89,158.34,158.34,158.34,158.34-70.89,158.34-158.34Zm3362.62,0c0,180.28-146.14,326.42-326.42,326.42s-326.42-146.14-326.42-326.42,146.14-326.42,326.42-326.42,326.42,146.14,326.42,326.42Zm-168.08,0c0-87.45-70.89-158.34-158.34-158.34s-158.34,70.89-158.34,158.34,70.89,158.34,158.34,158.34,158.34-70.89,158.34-158.34Zm828.4-2015.31h-452.9c-10.04,0-18.18,14.79-18.18,33.04v1823.92h489.25V402.03c0-18.25-8.14-33.04-18.18-33.04Zm-5006.03,0h-452.9c-10.04,0-18.18,14.79-18.18,33.04v1823.92h489.25V402.03c0-18.25-8.14-33.04-18.18-33.04Zm1477.59-1.2h-450.58v-.07h-31.08v.07h-440.7c-31.37,0-56.91,21.62-56.91,48.16v912.53c0,26.66,25.55,48.16,56.91,48.16h922.36c31.36,0,56.77-21.5,56.77-48.16V415.95c0-26.54-25.4-48.16-56.77-48.16Zm1281.39,0h-450.58v-.07h-31.08v.07h-440.7c-31.36,0-56.91,21.62-56.91,48.16v912.53c0,26.66,25.55,48.16,56.91,48.16h922.36c31.36,0,56.77-21.5,56.77-48.16V415.95c0-26.54-25.4-48.16-56.77-48.16Zm1203.54,0h-450.58v-.07h-31.08v.07h-440.7c-31.36,0-56.91,21.62-56.91,48.16v912.53c0,26.66,25.55,48.16,56.91,48.16h922.36c31.36,0,56.77-21.5,56.77-48.16V415.95c0-26.54-25.4-48.16-56.77-48.16Zm1496.84,82.59c-5.28-46.37-44.51-81.39-91.18-81.39h-154.73v1007.65h351.37l-105.47-926.27Z" style="fill: inherit;"/></g></svg>